<?xml version="1.0" encoding="UTF-8"?>
<svg xmlns="http://www.w3.org/2000/svg" xmlns:xlink="http://www.w3.org/1999/xlink" viewBox="0 0 48 48" version="1.1" width="50px" height="50px">
<g id="surface1">
<path style=" fill:#004D40;" d="M 19.53125 17.3125 L 41 24 L 19.53125 9.757813 Z "/>
<path style=" fill:#26A69A;" d="M 30.316406 4 L 11.617188 4 L 7 12 L 21 12 Z "/>
<path style=" fill:#00897B;" d="M 41 24 L 30.316406 4 L 21 12 Z "/>
<path style=" fill:#004D40;" d="M 19.824219 38.066406 L 41 24 L 19.824219 29.628906 Z "/>
<path style=" fill:#00897B;" d="M 21 31.097656 L 41 24 L 20.996094 16.925781 L 17.261719 24 Z "/>
<path style=" fill:#26A69A;" d="M 21 16.925781 L 17.09375 15.558594 L 8.054688 24 L 17.09375 32.460938 L 21 31.097656 Z "/>
<path style=" fill:#26A69A;" d="M 21 36.019531 L 7 36.019531 L 11.617188 44 L 30.316406 44 L 21.015625 36.011719 Z "/>
<path style=" fill:#00796B;" d="M 7 12 L 18.183594 15.941406 L 21 12 Z "/>
<path style=" fill:#00897B;" d="M 21.015625 36.011719 L 30.316406 44 L 41 24 Z "/>
<path style=" fill:#00796B;" d="M 21 36 L 18.269531 32.050781 L 7 36.019531 L 21 36.019531 Z "/>
<path style=" fill:#00695C;" d="M 21 31.097656 L 17.09375 32.460938 L 21 36 Z "/>
<path style=" fill:#00695C;" d="M 21 12 L 17.09375 15.558594 L 21 16.925781 Z "/>
</g>
</svg>
