<svg id="Layer_1" xmlns="http://www.w3.org/2000/svg" viewBox="0 0 48 48"><style>.st1{fill:#fff}</style><switch><g><linearGradient id="SVGID_1_" gradientUnits="userSpaceOnUse" x1="684.832" x2="685.54" y2=".707"><stop offset="0" stop-color="#e6e6ea"/><stop offset=".172" stop-color="#e2e2e6"/><stop offset=".348" stop-color="#d7d6da"/><stop offset=".526" stop-color="#c4c2c5"/><stop offset=".706" stop-color="#a9a7a8"/><stop offset=".885" stop-color="#878484"/><stop offset="1" stop-color="#6d6968"/></linearGradient><path fill="none" d="M.3 0h48v48H.3z"/><path class="st1" d="M42.4 9.8L27.2.8c-1.8-1.1-4-1.1-5.8 0l-15.2 9c-1.8 1.1-2.9 3.1-2.9 5.2v18c0 2.1 1.1 4.1 2.9 5.2l15.2 9c.9.5 1.9.8 2.9.8s2-.3 2.9-.8l15.2-9c1.8-1.1 2.9-3.1 2.9-5.2V15c0-2.1-1.1-4.1-2.9-5.2z"/><path d="M42.4 9.8L27.2.8c-.9-.5-1.9-.8-2.9-.8s-2 .3-2.9.8l-15.2 9c-1.8 1.1-2.9 3.1-2.9 5.2v18c0 2.1 1.1 4.1 2.9 5.2l15.2 9c.9.5 1.9.8 2.9.8s2-.3 2.9-.8l15.2-9c1.8-1.1 2.9-3.1 2.9-5.2V15c0-2.1-1.1-4.1-2.9-5.2zM21.9 46.3l-15.2-9c-1.5-.9-2.4-2.5-2.4-4.3V15c0-1.8.9-3.4 2.4-4.3l15.2-9c.7-.4 1.6-.7 2.4-.7.8 0 1.7.2 2.4.7l15.2 9c1.2.7 2.1 2 2.3 3.5-.5-1.1-1.6-1.4-3-.6l-14.3 8.9c-1.8 1-3.1 2.2-3.1 4.4v17.7c0 1.3.5 2.1 1.3 2.4-.3 0-.5.1-.8.1-.8-.2-1.6-.4-2.4-.8z" fill="#283037"/><path d="M38.4 34.7L34.7 37c-.1.1-.2.1-.2.2v1c0 .1.1.2.2.1l3.8-2.3c.1-.1.1-.2.1-.3v-.9c0-.1-.1-.1-.2-.1z" fill="#4da825"/><path class="st1" d="M30.4 26.4c.1-.1.2 0 .2.2v1.3c.5-.2 1-.3 1.5-.2.1 0 .1.2.1.3l-.3 1.2c0 .1-.1.2-.1.2s-.1 0-.1.1h-.1c-.2 0-.7-.1-1.4.2-.8.4-1 1.1-1 1.6 0 .6.3.8 1.4.8 1.4 0 2 .6 2 2s-.7 2.9-1.9 3.8v1.3c0 .2-.1.3-.2.4l-.8.4c-.1.1-.2 0-.2-.2v-1.3c-.7.3-1.3.3-1.7.2-.1 0-.1-.1-.1-.3l.3-1.2c0-.1.1-.2.1-.2l.1-.1h.1c.5.2 1 .1 1.6-.2.7-.4 1.2-1.1 1.2-1.8s-.4-.9-1.2-.9c-1.1 0-2.1-.2-2.1-1.8 0-1.3.7-2.7 1.8-3.6v-1.3c0-.2.1-.3.2-.4l.6-.5z"/></g></switch></svg>