<!--?xml version="1.0" encoding="utf-8"?-->
<!-- Generator: Adobe Illustrator 19.1.1, SVG Export Plug-In . SVG Version: 6.00 Build 0)  -->
<svg version="1.1" id="_x31_0" xmlns="http://www.w3.org/2000/svg" xmlns:xlink="http://www.w3.org/1999/xlink" x="0px" y="0px" viewBox="0 0 512 512" style="width: 256px; height: 256px; opacity: 1;" xml:space="preserve">
<style type="text/css">
	.st0{fill:#d7dade;}
</style>
<g>
	<path class="st0" d="M501.834,204.122c-19.918-47.203-67.918-79.281-119.358-79.762h-1.199c-3.68,0-7.442,0.16-11.121,0.481
		c-0.719,0.078-1.52,0.16-2.238,0.242c-0.723,0.078-1.442,0.157-2.238,0.238c-2.562,0.321-5.121,0.719-7.68,1.122
		c-2.562,0.476-5.042,1.038-7.602,1.598c-2.48,0.64-5.038,1.363-7.441,2.082c-2.481,0.797-4.957,1.598-7.359,2.481
		c-4.879,1.839-9.598,3.918-14.238,6.316c-1.282,0.641-2.641,1.363-3.922,2.082c-1.282,0.718-2.563,1.441-3.84,2.238
		c-12,7.281-21.282,15.922-28,22.64l-13.918,13.922l49.671,52.141l6.602,6.957c0.004-0.004,0.008-0.012,0.016-0.015l0.109,0.117
		c10.481-13.121,28.398-29.039,53.519-29.359h0.801c3.918,0,7.758,0.481,11.359,1.442c0.926,0.222,1.84,0.535,2.758,0.824
		c1.113,0.351,2.191,0.738,3.238,1.168c0.891,0.363,1.794,0.699,2.645,1.125c1.118,0.481,2.16,1.039,3.199,1.68
		c1.598,0.882,3.121,1.922,4.558,2.961c1.203,0.961,2.321,1.84,3.442,2.879c9.359,8.48,15.199,20.722,15.199,34.32
		c0,13.602-5.84,25.839-15.199,34.32c-1.121,0.961-2.238,1.922-3.442,2.801c-1.438,1.121-2.961,2.078-4.558,3.039
		c-6.801,3.922-14.722,6.16-23.199,6.16h-0.801c-26.64-0.321-40.722-16.879-55.281-31.598l-41.598-43.679l-29.441-30.883
		l-30.801-32.32c-6.558-6.398-15.117-14.078-26-20.64c-1.281-0.798-2.558-1.52-3.84-2.238c-1.277-0.719-2.636-1.442-3.918-2.082
		c-4.641-2.398-9.359-4.477-14.242-6.316c-2.398-0.883-4.878-1.684-7.359-2.481c-2.48-0.718-4.961-1.442-7.438-2.082
		c-2.562-0.559-5.042-1.122-7.602-1.598c-2.562-0.402-5.121-0.801-7.679-1.122c-0.801-0.082-1.523-0.16-2.242-0.238
		c-0.718-0.082-1.519-0.164-2.238-0.242c-3.679-0.321-7.441-0.481-11.121-0.481h-1.199c-51.441,0.481-99.441,32.558-119.358,79.762
		c-6.962,16.48-10.321,33.999-10.238,51.358v1.122c-0.082,17.359,3.277,34.878,10.238,51.359
		c19.918,47.198,67.918,79.198,119.358,79.679h3.762c1.199-0.082,2.398-0.082,3.598-0.16c3.199-0.078,6.321-0.398,9.442-0.719
		c1.199-0.16,2.398-0.32,3.602-0.48c0.477-0.082,1.039-0.161,1.515-0.321c1.844-0.242,3.602-0.558,5.36-0.961
		c11.762-2.32,23.125-6.32,33.843-11.84c1.282-0.718,2.641-1.359,3.918-2.078c1.282-0.801,2.559-1.524,3.84-2.321
		c12-7.203,21.282-15.843,28-22.562l14.082-14.16L191.2,280.23l-6.918-7.293c-0.004,0.007-0.008,0.011-0.015,0.015l-0.11-0.113
		c-10.477,13.121-28.477,29.198-53.679,29.519h-0.797c-8.485,0-16.402-2.238-23.282-6.16c-1.523-0.962-3.039-1.918-4.48-3.039
		c-1.199-0.879-2.321-1.84-3.442-2.801c-9.359-8.481-15.199-20.718-15.199-34.32c0-13.598,5.84-25.84,15.199-34.32
		c1.121-1.039,2.242-1.918,3.442-2.879c1.441-1.039,2.957-2.078,4.48-2.961c1.118-0.641,2.16-1.199,3.282-1.68
		c2.718-1.359,5.598-2.398,8.637-3.117c3.601-0.961,7.441-1.442,11.363-1.442h0.797c1.5,0.019,2.961,0.133,4.41,0.274
		c0.387,0.035,0.774,0.066,1.157,0.113c24.839,2.938,42.125,22.465,50.995,33.055l40.078,42.078l29.519,30.878l23.121,24.321
		l5.84,5.839c6.718,6.719,16,15.359,28,22.562c1.277,0.797,2.558,1.52,3.84,2.321c1.281,0.718,2.562,1.359,3.922,2.078
		c10.718,5.52,22.078,9.52,33.836,11.84c1.762,0.402,3.523,0.718,5.281,0.961c0.562,0.16,1.121,0.238,1.602,0.321
		c1.199,0.16,2.398,0.32,3.602,0.48c3.117,0.321,6.238,0.641,9.438,0.719c1.199,0.078,2.398,0.078,3.519,0.16h3.84
		c51.441-0.481,99.441-32.481,119.358-79.679c6.961-16.481,10.242-34,10.164-51.359v-1.122
		C512.077,238.121,508.795,220.602,501.834,204.122z"></path>
</g>
</svg>
